<svg width="84" height="66" viewBox="0 0 84 66" fill="none" xmlns="http://www.w3.org/2000/svg">
<path d="M6.74902 30.25H41.999V36.125H6.74902V30.25ZM0.874023 15.5625H30.249V21.4375H0.874023V15.5625Z" fill="black"/>
<path d="M82.8871 32.0301L74.0746 11.4676C73.8485 10.9391 73.4721 10.4887 72.9922 10.1722C72.5122 9.85572 71.9499 9.68718 71.3751 9.6875H62.5626V3.8125C62.5626 3.03343 62.2531 2.28626 61.7022 1.73537C61.1513 1.18449 60.4041 0.875 59.6251 0.875H12.6251V6.75H56.6876V43.6332C55.349 44.4105 54.1776 45.445 53.2409 46.6772C52.3041 47.9094 51.6206 49.3148 51.2297 50.8125H32.7704C32.0555 48.0434 30.3551 45.6302 27.9882 44.0251C25.6212 42.42 22.7501 41.7333 19.913 42.0936C17.0759 42.454 14.4677 43.8367 12.5771 45.9826C10.6866 48.1284 9.64355 50.8901 9.64355 53.75C9.64355 56.6099 10.6866 59.3716 12.5771 61.5174C14.4677 63.6633 17.0759 65.046 19.913 65.4063C22.7501 65.7667 25.6212 65.08 27.9882 63.4749C30.3551 61.8698 32.0555 59.4566 32.7704 56.6875H51.2297C51.8687 59.2086 53.3301 61.4446 55.3827 63.0418C57.4352 64.639 59.9618 65.5062 62.5626 65.5062C65.1634 65.5062 67.6899 64.639 69.7425 63.0418C71.795 61.4446 73.2564 59.2086 73.8954 56.6875H80.1876C80.9666 56.6875 81.7138 56.378 82.2647 55.8271C82.8156 55.2762 83.1251 54.5291 83.1251 53.75V33.1875C83.1252 32.7895 83.0443 32.3957 82.8871 32.0301ZM21.4376 59.625C20.2756 59.625 19.1397 59.2804 18.1736 58.6349C17.2075 57.9893 16.4544 57.0718 16.0098 55.9983C15.5651 54.9247 15.4488 53.7435 15.6755 52.6038C15.9021 51.4642 16.4617 50.4174 17.2833 49.5957C18.1049 48.7741 19.1518 48.2146 20.2914 47.9879C21.4311 47.7612 22.6123 47.8775 23.6858 48.3222C24.7593 48.7669 25.6769 49.5199 26.3225 50.486C26.968 51.4522 27.3126 52.588 27.3126 53.75C27.311 55.3077 26.6915 56.8011 25.5901 57.9025C24.4887 59.004 22.9952 59.6234 21.4376 59.625ZM62.5626 15.5625H69.4363L75.7343 30.25H62.5626V15.5625ZM62.5626 59.625C61.4006 59.625 60.2647 59.2804 59.2986 58.6349C58.3325 57.9893 57.5794 57.0718 57.1348 55.9983C56.6901 54.9247 56.5738 53.7435 56.8005 52.6038C57.0271 51.4642 57.5867 50.4174 58.4083 49.5957C59.2299 48.7741 60.2768 48.2146 61.4164 47.9879C62.556 47.7612 63.7373 47.8775 64.8108 48.3222C65.8843 48.7669 66.8019 49.5199 67.4474 50.486C68.093 51.4522 68.4376 52.588 68.4376 53.75C68.436 55.3077 67.8165 56.8011 66.7151 57.9025C65.6137 59.004 64.1202 59.6234 62.5626 59.625ZM77.2501 50.8125H73.8954C73.2484 48.2963 71.7846 46.066 69.7337 44.4712C67.6828 42.8764 65.1606 42.0072 62.5626 42V36.125H77.2501V50.8125Z" fill="black"/>
</svg>
