<svg width="51" height="51" viewBox="0 0 51 51" fill="none" xmlns="http://www.w3.org/2000/svg">
<path d="M23.9102 7.91333H26.8398C27.1003 7.91333 27.2305 8.04354 27.2305 8.30396V42.679C27.2305 42.9394 27.1003 43.0696 26.8398 43.0696H23.9102C23.6497 43.0696 23.5195 42.9394 23.5195 42.679V8.30396C23.5195 8.04354 23.6497 7.91333 23.9102 7.91333Z" fill="#888887"/>
<path d="M8.39062 23H41.2031C41.4635 23 41.5938 23.1302 41.5938 23.3906V26.3203C41.5938 26.5807 41.4635 26.7109 41.2031 26.7109H8.39062C8.13021 26.7109 8 26.5807 8 26.3203V23.3906C8 23.1302 8.13021 23 8.39062 23Z" fill="#888887"/>
</svg>
