<svg width="10" height="16" viewBox="0 0 10 16" fill="none" xmlns="http://www.w3.org/2000/svg">
<path d="M8.95036 8.96095C9.12574 8.78578 9.22439 8.54813 9.22461 8.30025V7.82654C9.22174 7.5792 9.12349 7.34252 8.95036 7.16585L2.54284 0.770797C2.42581 0.652798 2.26649 0.586426 2.1003 0.586426C1.9341 0.586426 1.77479 0.652798 1.65776 0.770797L0.772671 1.65588C0.65541 1.77077 0.589332 1.92803 0.589332 2.09219C0.589332 2.25636 0.65541 2.41361 0.772671 2.5285L6.32003 8.0634L0.772671 13.5983C0.654672 13.7153 0.5883 13.8746 0.5883 14.0408C0.5883 14.207 0.654672 14.3663 0.772671 14.4834L1.65776 15.356C1.77479 15.474 1.9341 15.5404 2.1003 15.5404C2.26649 15.5404 2.42581 15.474 2.54284 15.356L8.95036 8.96095Z" fill="#BCBCBC"/>
</svg>
