<svg width="10" height="16" viewBox="0 0 10 16" fill="none" xmlns="http://www.w3.org/2000/svg">
<path d="M1.17916 8.96095C1.00377 8.78578 0.905125 8.54813 0.904907 8.30025V7.82654C0.907779 7.5792 1.00603 7.34252 1.17916 7.16585L7.58668 0.770797C7.70371 0.652798 7.86302 0.586426 8.02922 0.586426C8.19541 0.586426 8.35473 0.652798 8.47176 0.770797L9.35685 1.65588C9.47411 1.77077 9.54018 1.92803 9.54018 2.09219C9.54018 2.25636 9.47411 2.41361 9.35685 2.5285L3.80948 8.0634L9.35685 13.5983C9.47484 13.7153 9.54122 13.8746 9.54122 14.0408C9.54122 14.207 9.47484 14.3663 9.35685 14.4834L8.47176 15.356C8.35473 15.474 8.19541 15.5404 8.02922 15.5404C7.86302 15.5404 7.70371 15.474 7.58668 15.356L1.17916 8.96095Z" fill="#BCBCBC"/>
</svg>
