<svg width="27" height="26" viewBox="0 0 27 26" fill="none" xmlns="http://www.w3.org/2000/svg">
<path d="M12.1669 0.943568C12.7062 -0.300109 14.47 -0.300105 15.0093 0.943571L17.2834 6.18792C17.7323 7.22314 18.7085 7.93242 19.8318 8.03946L25.5222 8.58169C26.8717 8.71028 27.4167 10.3877 26.4005 11.2849L22.1156 15.0683C21.2698 15.8151 20.8969 16.9628 21.1422 18.0642L22.385 23.6436C22.6797 24.9668 21.2528 26.0035 20.0855 25.3143L15.1631 22.4082C14.1915 21.8346 12.9847 21.8346 12.0131 22.4082L7.09072 25.3143C5.9234 26.0035 4.49653 24.9668 4.79124 23.6436L6.03398 18.0642C6.2793 16.9628 5.9064 15.8151 5.06057 15.0683L0.775643 11.2849C-0.24051 10.3877 0.304509 8.71028 1.65397 8.58169L7.34438 8.03946C8.46766 7.93242 9.44391 7.22314 9.89281 6.18791L12.1669 0.943568Z" fill="#FDBC15"/>
</svg>
