<svg width="38" height="37" viewBox="0 0 38 37" fill="none" xmlns="http://www.w3.org/2000/svg">
<path fill-rule="evenodd" clip-rule="evenodd" d="M19.0001 0.234894C8.87508 0.234894 0.666748 8.44323 0.666748 18.5682C0.666748 28.6932 8.87508 36.9016 19.0001 36.9016C29.1251 36.9016 37.3334 28.6932 37.3334 18.5682C37.3334 8.44323 29.1251 0.234894 19.0001 0.234894ZM26.9467 15.4682C27.0931 15.301 27.2045 15.1061 27.2744 14.8952C27.3443 14.6842 27.3713 14.4614 27.3539 14.2399C27.3364 14.0183 27.2748 13.8025 27.1727 13.6051C27.0706 13.4077 26.9301 13.2327 26.7593 13.0905C26.5886 12.9482 26.3911 12.8415 26.1786 12.7767C25.966 12.7118 25.7426 12.6902 25.5216 12.7129C25.3005 12.7357 25.0862 12.8025 24.8913 12.9093C24.6964 13.0161 24.5249 13.1608 24.3867 13.3349L17.2201 21.9332L13.5117 18.2232C13.1974 17.9196 12.7764 17.7516 12.3394 17.7554C11.9024 17.7592 11.4844 17.9345 11.1754 18.2435C10.8664 18.5525 10.6911 18.9706 10.6873 19.4076C10.6835 19.8446 10.8515 20.2656 11.1551 20.5799L16.1551 25.5799C16.3188 25.7436 16.5149 25.8713 16.7308 25.955C16.9466 26.0387 17.1776 26.0765 17.4089 26.066C17.6401 26.0555 17.8667 25.9969 18.0741 25.894C18.2815 25.7911 18.4652 25.6461 18.6134 25.4682L26.9467 15.4682Z" fill="#545454"/>
</svg>
