<?xml version="1.0" encoding="UTF-8"?>
<svg xmlns="http://www.w3.org/2000/svg" xmlns:xlink="http://www.w3.org/1999/xlink" width="29px" height="29px" viewBox="0 0 29 29" version="1.1">
<g id="surface1">
<path style=" stroke:none;fill-rule:nonzero;fill:#FFF;fill-opacity:1;" d="M 26.019531 8.59375 C 26.039062 8.851562 26.039062 9.109375 26.039062 9.367188 C 26.039062 17.222656 20.058594 26.277344 9.125 26.277344 C 5.757812 26.277344 2.632812 25.300781 0 23.609375 C 0.476562 23.664062 0.9375 23.683594 1.433594 23.683594 C 4.214844 23.683594 6.773438 22.742188 8.8125 21.144531 C 6.199219 21.085938 4.011719 19.375 3.257812 17.019531 C 3.625 17.074219 3.992188 17.113281 4.378906 17.113281 C 4.914062 17.113281 5.445312 17.039062 5.945312 16.910156 C 3.21875 16.359375 1.175781 13.964844 1.175781 11.078125 L 1.175781 11.003906 C 1.96875 11.445312 2.890625 11.722656 3.863281 11.757812 C 2.261719 10.691406 1.214844 8.871094 1.214844 6.808594 C 1.214844 5.703125 1.507812 4.691406 2.023438 3.808594 C 4.949219 7.414062 9.347656 9.769531 14.277344 10.027344 C 14.1875 9.585938 14.132812 9.128906 14.132812 8.667969 C 14.132812 5.390625 16.78125 2.722656 20.074219 2.722656 C 21.785156 2.722656 23.332031 3.441406 24.417969 4.601562 C 25.761719 4.34375 27.050781 3.847656 28.191406 3.164062 C 27.75 4.546875 26.808594 5.703125 25.578125 6.441406 C 26.773438 6.3125 27.933594 5.980469 29 5.519531 C 28.191406 6.699219 27.179688 7.746094 26.019531 8.59375 Z M 26.019531 8.59375 "/>
</g>
</svg>
