<svg width="37" height="74" viewBox="0 0 37 74" fill="none" xmlns="http://www.w3.org/2000/svg">
<path d="M5.2175 73.0689C4.00056 73.0713 2.82121 72.6475 1.88417 71.871C1.35678 71.4338 0.920831 70.8968 0.60129 70.2908C0.281748 69.6849 0.0848921 69.0218 0.021997 68.3396C-0.0408981 67.6575 0.0314041 66.9696 0.234761 66.3154C0.438117 65.6612 0.768529 65.0536 1.20708 64.5273L24.5404 36.6106L2.04042 8.64186C1.60778 8.10911 1.2847 7.49611 1.08974 6.8381C0.894788 6.18008 0.831799 5.49002 0.904399 4.80758C0.976999 4.12514 1.18375 3.46378 1.51278 2.8615C1.84181 2.25923 2.28663 1.72792 2.82167 1.29811C3.36055 0.823963 3.99162 0.46632 4.67528 0.247627C5.35894 0.0289337 6.08042 -0.0460856 6.79445 0.0272732C7.50848 0.100632 8.19963 0.320787 8.82454 0.673921C9.44945 1.02706 9.99461 1.50555 10.4258 2.07936L35.5821 33.3294C36.3481 34.2613 36.7669 35.4303 36.7669 36.6367C36.7669 37.843 36.3481 39.012 35.5821 39.944L9.54042 71.1939C9.01793 71.8242 8.35421 72.3225 7.60312 72.6483C6.85203 72.974 6.03472 73.1182 5.2175 73.0689Z" fill="#545454"/>
</svg>
