<svg width="37" height="74" viewBox="0 0 37 74" fill="none" xmlns="http://www.w3.org/2000/svg">
<path d="M31.5493 73.0689C32.7663 73.0713 33.9456 72.6475 34.8827 71.871C35.4101 71.4338 35.846 70.8968 36.1656 70.2908C36.4851 69.6849 36.682 69.0218 36.7448 68.3396C36.8077 67.6575 36.7354 66.9696 36.5321 66.3154C36.3287 65.6612 35.9983 65.0536 35.5598 64.5273L12.2264 36.6106L34.7264 8.64186C35.1591 8.10911 35.4821 7.49611 35.6771 6.8381C35.8721 6.18008 35.935 5.49002 35.8624 4.80758C35.7898 4.12514 35.5831 3.46378 35.2541 2.8615C34.925 2.25923 34.4802 1.72792 33.9452 1.29811C33.4063 0.823963 32.7752 0.46632 32.0916 0.247627C31.4079 0.0289337 30.6864 -0.0460856 29.9724 0.0272732C29.2584 0.100632 28.5672 0.320787 27.9423 0.673921C27.3174 1.02706 26.7722 1.50555 26.341 2.07936L1.18476 33.3294C0.418713 34.2613 -6.48499e-05 35.4303 -6.48499e-05 36.6367C-6.48499e-05 37.843 0.418713 39.012 1.18476 39.944L27.2264 71.1939C27.7489 71.8242 28.4126 72.3225 29.1637 72.6483C29.9148 72.974 30.7321 73.1182 31.5493 73.0689Z" fill="#545454"/>
</svg>
